<svg width="284" height="284" viewBox="0 0 284 284" fill="none" xmlns="http://www.w3.org/2000/svg">
<path fill-rule="evenodd" clip-rule="evenodd" d="M142 276C216.006 276 276 216.006 276 142C276 67.9938 216.006 8 142 8C67.9938 8 8 67.9938 8 142C8 216.006 67.9938 276 142 276ZM142 284C220.424 284 284 220.424 284 142C284 63.5756 220.424 0 142 0C63.5756 0 0 63.5756 0 142C0 220.424 63.5756 284 142 284ZM143.361 63.0213C178.593 63.8636 208.059 89.5475 215.797 124H219.89C211.945 86.8145 179.898 59 141.574 59C103.25 59 71.2041 86.8145 63.2585 124H67.3517C75.1509 89.2745 105.024 63.457 140.626 63.006L140.152 64.2971L117.855 125H121.533L141.991 69.3034L162.449 125H166.127L143.83 64.2971L143.361 63.0213ZM100.958 171L91.2067 197.548L90.1837 200.333C81.9456 192.533 75.3607 182.88 71.0499 172H66.7667C78.3887 203.012 107.5 225 141.574 225C175.649 225 204.76 203.012 216.382 172H212.099C207.896 182.608 201.532 192.048 193.581 199.743L192.775 197.548L183.024 171H179.346L189.097 197.548H94.8845L104.636 171H100.958ZM192.251 201H190.366H93.6164H90.8974C104.383 213.45 122.152 221 141.574 221C160.996 221 178.766 213.45 192.251 201ZM42.5156 153.219C42.5156 155 42.0938 156.508 41.25 157.742C40.4219 158.961 39.1797 159.891 37.5234 160.531C35.8672 161.156 33.8047 161.469 31.3359 161.469C29.5078 161.469 27.9375 161.352 26.625 161.117C25.3281 160.883 24.0156 160.492 22.6875 159.945V154.039C24.1094 154.68 25.6328 155.211 27.2578 155.633C28.8984 156.039 30.3359 156.242 31.5703 156.242C32.9609 156.242 33.9531 156.039 34.5469 155.633C35.1562 155.211 35.4609 154.664 35.4609 153.992C35.4609 153.555 35.3359 153.164 35.0859 152.82C34.8516 152.461 34.3359 152.062 33.5391 151.625C32.7422 151.172 31.4922 150.586 29.7891 149.867C28.1484 149.18 26.7969 148.484 25.7344 147.781C24.6875 147.078 23.9062 146.25 23.3906 145.297C22.8906 144.328 22.6406 143.102 22.6406 141.617C22.6406 139.195 23.5781 137.375 25.4531 136.156C27.3438 134.922 29.8672 134.305 33.0234 134.305C34.6484 134.305 36.1953 134.469 37.6641 134.797C39.1484 135.125 40.6719 135.648 42.2344 136.367L40.0781 141.523C38.7812 140.961 37.5547 140.5 36.3984 140.141C35.2578 139.781 34.0938 139.602 32.9062 139.602C31.8594 139.602 31.0703 139.742 30.5391 140.023C30.0078 140.305 29.7422 140.734 29.7422 141.312C29.7422 141.734 29.875 142.109 30.1406 142.438C30.4219 142.766 30.9531 143.133 31.7344 143.539C32.5312 143.93 33.6953 144.438 35.2266 145.062C36.7109 145.672 38 146.312 39.0938 146.984C40.1875 147.641 41.0312 148.461 41.625 149.445C42.2188 150.414 42.5156 151.672 42.5156 153.219ZM62.6719 134.305C65.625 134.305 68.0078 135.453 69.8203 137.75C71.6484 140.047 72.5625 143.414 72.5625 147.852C72.5625 150.82 72.1328 153.32 71.2734 155.352C70.4141 157.367 69.2266 158.891 67.7109 159.922C66.1953 160.953 64.4531 161.469 62.4844 161.469C61.2188 161.469 60.1328 161.312 59.2266 161C58.3203 160.672 57.5469 160.258 56.9062 159.758C56.2656 159.242 55.7109 158.695 55.2422 158.117H54.8672C54.9922 158.742 55.0859 159.383 55.1484 160.039C55.2109 160.695 55.2422 161.336 55.2422 161.961V172.531H48.0938V134.797H53.9062L54.9141 138.195H55.2422C55.7109 137.492 56.2812 136.844 56.9531 136.25C57.625 135.656 58.4297 135.188 59.3672 134.844C60.3203 134.484 61.4219 134.305 62.6719 134.305ZM60.375 140.023C59.125 140.023 58.1328 140.281 57.3984 140.797C56.6641 141.312 56.125 142.086 55.7812 143.117C55.4531 144.148 55.2734 145.453 55.2422 147.031V147.805C55.2422 149.492 55.3984 150.922 55.7109 152.094C56.0391 153.266 56.5781 154.156 57.3281 154.766C58.0938 155.375 59.1406 155.68 60.4688 155.68C61.5625 155.68 62.4609 155.375 63.1641 154.766C63.8672 154.156 64.3906 153.266 64.7344 152.094C65.0938 150.906 65.2734 149.461 65.2734 147.758C65.2734 145.195 64.875 143.266 64.0781 141.969C63.2812 140.672 62.0469 140.023 60.375 140.023ZM89.2031 134.258C92.7188 134.258 95.4141 135.023 97.2891 136.555C99.1641 138.086 100.102 140.414 100.102 143.539V161H95.1094L93.7266 157.438H93.5391C92.7891 158.375 92.0234 159.141 91.2422 159.734C90.4609 160.328 89.5625 160.766 88.5469 161.047C87.5312 161.328 86.2969 161.469 84.8438 161.469C83.2969 161.469 81.9062 161.172 80.6719 160.578C79.4531 159.984 78.4922 159.078 77.7891 157.859C77.0859 156.625 76.7344 155.062 76.7344 153.172C76.7344 150.391 77.7109 148.344 79.6641 147.031C81.6172 145.703 84.5469 144.969 88.4531 144.828L93 144.688V143.539C93 142.164 92.6406 141.156 91.9219 140.516C91.2031 139.875 90.2031 139.555 88.9219 139.555C87.6562 139.555 86.4141 139.734 85.1953 140.094C83.9766 140.453 82.7578 140.906 81.5391 141.453L79.1719 136.625C80.5625 135.891 82.1172 135.312 83.8359 134.891C85.5703 134.469 87.3594 134.258 89.2031 134.258ZM93 148.859L90.2344 148.953C87.9219 149.016 86.3125 149.43 85.4062 150.195C84.5156 150.961 84.0703 151.969 84.0703 153.219C84.0703 154.312 84.3906 155.094 85.0312 155.562C85.6719 156.016 86.5078 156.242 87.5391 156.242C89.0703 156.242 90.3594 155.789 91.4062 154.883C92.4688 153.977 93 152.688 93 151.016V148.859ZM118.125 161.469C115.531 161.469 113.32 161 111.492 160.062C109.664 159.109 108.273 157.641 107.32 155.656C106.367 153.672 105.891 151.133 105.891 148.039C105.891 144.836 106.43 142.227 107.508 140.211C108.602 138.18 110.109 136.688 112.031 135.734C113.969 134.781 116.211 134.305 118.758 134.305C120.57 134.305 122.133 134.484 123.445 134.844C124.773 135.188 125.93 135.602 126.914 136.086L124.805 141.617C123.68 141.164 122.633 140.797 121.664 140.516C120.695 140.219 119.727 140.07 118.758 140.07C117.508 140.07 116.469 140.367 115.641 140.961C114.812 141.539 114.195 142.414 113.789 143.586C113.383 144.758 113.18 146.227 113.18 147.992C113.18 149.727 113.398 151.164 113.836 152.305C114.273 153.445 114.906 154.297 115.734 154.859C116.562 155.406 117.57 155.68 118.758 155.68C120.242 155.68 121.562 155.484 122.719 155.094C123.875 154.688 125 154.125 126.094 153.406V159.523C125 160.211 123.852 160.703 122.648 161C121.461 161.312 119.953 161.469 118.125 161.469ZM142.992 134.305C145.414 134.305 147.5 134.773 149.25 135.711C151 136.633 152.352 137.977 153.305 139.742C154.258 141.508 154.734 143.664 154.734 146.211V149.68H137.836C137.914 151.695 138.516 153.281 139.641 154.438C140.781 155.578 142.359 156.148 144.375 156.148C146.047 156.148 147.578 155.977 148.969 155.633C150.359 155.289 151.789 154.773 153.258 154.086V159.617C151.961 160.258 150.602 160.727 149.18 161.023C147.773 161.32 146.062 161.469 144.047 161.469C141.422 161.469 139.094 160.984 137.062 160.016C135.047 159.047 133.461 157.57 132.305 155.586C131.164 153.602 130.594 151.102 130.594 148.086C130.594 145.023 131.109 142.477 132.141 140.445C133.188 138.398 134.641 136.867 136.5 135.852C138.359 134.82 140.523 134.305 142.992 134.305ZM143.039 139.391C141.648 139.391 140.492 139.836 139.57 140.727C138.664 141.617 138.141 143.016 138 144.922H148.031C148.016 143.859 147.82 142.914 147.445 142.086C147.086 141.258 146.539 140.602 145.805 140.117C145.086 139.633 144.164 139.391 143.039 139.391ZM191.32 134.305C194.289 134.305 196.531 135.07 198.047 136.602C199.578 138.117 200.344 140.555 200.344 143.914V161H193.172V145.695C193.172 143.82 192.852 142.406 192.211 141.453C191.57 140.5 190.578 140.023 189.234 140.023C187.344 140.023 186 140.703 185.203 142.062C184.406 143.406 184.008 145.336 184.008 147.852V161H176.859V145.695C176.859 144.445 176.719 143.398 176.438 142.555C176.156 141.711 175.727 141.078 175.148 140.656C174.57 140.234 173.828 140.023 172.922 140.023C171.594 140.023 170.547 140.359 169.781 141.031C169.031 141.688 168.492 142.664 168.164 143.961C167.852 145.242 167.695 146.812 167.695 148.672V161H160.547V134.797H166.008L166.969 138.148H167.367C167.898 137.242 168.562 136.508 169.359 135.945C170.172 135.383 171.062 134.969 172.031 134.703C173 134.438 173.984 134.305 174.984 134.305C176.906 134.305 178.531 134.617 179.859 135.242C181.203 135.867 182.234 136.836 182.953 138.148H183.586C184.367 136.805 185.469 135.828 186.891 135.219C188.328 134.609 189.805 134.305 191.32 134.305ZM218.438 134.258C221.953 134.258 224.648 135.023 226.523 136.555C228.398 138.086 229.336 140.414 229.336 143.539V161H224.344L222.961 157.438H222.773C222.023 158.375 221.258 159.141 220.477 159.734C219.695 160.328 218.797 160.766 217.781 161.047C216.766 161.328 215.531 161.469 214.078 161.469C212.531 161.469 211.141 161.172 209.906 160.578C208.688 159.984 207.727 159.078 207.023 157.859C206.32 156.625 205.969 155.062 205.969 153.172C205.969 150.391 206.945 148.344 208.898 147.031C210.852 145.703 213.781 144.969 217.688 144.828L222.234 144.688V143.539C222.234 142.164 221.875 141.156 221.156 140.516C220.438 139.875 219.438 139.555 218.156 139.555C216.891 139.555 215.648 139.734 214.43 140.094C213.211 140.453 211.992 140.906 210.773 141.453L208.406 136.625C209.797 135.891 211.352 135.312 213.07 134.891C214.805 134.469 216.594 134.258 218.438 134.258ZM222.234 148.859L219.469 148.953C217.156 149.016 215.547 149.43 214.641 150.195C213.75 150.961 213.305 151.969 213.305 153.219C213.305 154.312 213.625 155.094 214.266 155.562C214.906 156.016 215.742 156.242 216.773 156.242C218.305 156.242 219.594 155.789 220.641 154.883C221.703 153.977 222.234 152.688 222.234 151.016V148.859ZM251.602 134.305C254.398 134.305 256.648 135.07 258.352 136.602C260.055 138.117 260.906 140.555 260.906 143.914V161H253.758V145.695C253.758 143.82 253.414 142.406 252.727 141.453C252.055 140.5 250.992 140.023 249.539 140.023C247.352 140.023 245.859 140.766 245.062 142.25C244.266 143.734 243.867 145.875 243.867 148.672V161H236.719V134.797H242.18L243.141 138.148H243.539C244.102 137.242 244.797 136.508 245.625 135.945C246.469 135.383 247.398 134.969 248.414 134.703C249.445 134.438 250.508 134.305 251.602 134.305ZM139.305 45.2852C140.008 44.2565 140.359 43 140.359 41.5156C140.359 40.2266 140.112 39.1784 139.617 38.3711C139.122 37.5508 138.419 36.8672 137.508 36.3203C136.596 35.7604 135.522 35.2266 134.285 34.7188C133.009 34.1979 132.039 33.7747 131.375 33.4492C130.724 33.1107 130.281 32.8047 130.047 32.5312C129.826 32.2578 129.715 31.9453 129.715 31.5938C129.715 31.112 129.936 30.7539 130.379 30.5195C130.822 30.2852 131.479 30.168 132.352 30.168C133.341 30.168 134.311 30.3177 135.262 30.6172C136.225 30.9167 137.247 31.3008 138.328 31.7695L140.125 27.4727C138.823 26.8737 137.553 26.4375 136.316 26.1641C135.092 25.8906 133.803 25.7539 132.449 25.7539C129.819 25.7539 127.716 26.2682 126.141 27.2969C124.578 28.3125 123.797 29.8294 123.797 31.8477C123.797 33.0846 124.005 34.1068 124.422 34.9141C124.852 35.7083 125.503 36.3984 126.375 36.9844C127.26 37.5703 128.387 38.1497 129.754 38.7227C131.173 39.3216 132.215 39.8099 132.879 40.1875C133.543 40.5521 133.973 40.8841 134.168 41.1836C134.376 41.4701 134.48 41.7956 134.48 42.1602C134.48 42.7201 134.227 43.1758 133.719 43.5273C133.224 43.8659 132.397 44.0352 131.238 44.0352C130.21 44.0352 129.012 43.8659 127.645 43.5273C126.29 43.1758 125.021 42.7331 123.836 42.1992V47.1211C124.943 47.5768 126.036 47.9023 127.117 48.0977C128.211 48.293 129.52 48.3906 131.043 48.3906C133.1 48.3906 134.819 48.1302 136.199 47.6094C137.579 47.0755 138.615 46.3008 139.305 45.2852ZM158.23 25.8125C157.84 25.7734 157.495 25.7539 157.195 25.7539C156.232 25.7539 155.333 25.9427 154.5 26.3203C153.68 26.6849 152.944 27.1797 152.293 27.8047C151.655 28.4167 151.121 29.0938 150.691 29.8359H150.398L149.52 26.1641H145.008V48H150.965V36.8867C150.965 35.8581 151.128 34.9922 151.453 34.2891C151.792 33.5729 152.247 33 152.82 32.5703C153.393 32.1276 154.038 31.8086 154.754 31.6133C155.483 31.418 156.232 31.3203 157 31.3203C157.26 31.3203 157.566 31.3398 157.918 31.3789C158.283 31.4049 158.562 31.4505 158.758 31.5156L159.207 25.9297C158.96 25.8776 158.634 25.8385 158.23 25.8125ZM64.3594 228.656C64.3594 230.01 64.0312 231.188 63.375 232.188C62.7188 233.188 61.7604 233.958 60.5 234.5C59.25 235.042 57.7292 235.312 55.9375 235.312C55.1458 235.312 54.3698 235.26 53.6094 235.156C52.8594 235.052 52.1354 234.901 51.4375 234.703C50.75 234.495 50.0938 234.24 49.4688 233.938V229.438C50.5521 229.917 51.6771 230.349 52.8438 230.734C54.0104 231.12 55.1667 231.312 56.3125 231.312C57.1042 231.312 57.7396 231.208 58.2188 231C58.7083 230.792 59.0625 230.505 59.2812 230.141C59.5 229.776 59.6094 229.359 59.6094 228.891C59.6094 228.318 59.4167 227.828 59.0312 227.422C58.6458 227.016 58.1146 226.635 57.4375 226.281C56.7708 225.927 56.0156 225.547 55.1719 225.141C54.6406 224.891 54.0625 224.589 53.4375 224.234C52.8125 223.87 52.2188 223.427 51.6562 222.906C51.0938 222.385 50.6302 221.755 50.2656 221.016C49.9115 220.266 49.7344 219.37 49.7344 218.328C49.7344 216.964 50.0469 215.797 50.6719 214.828C51.2969 213.859 52.1875 213.12 53.3438 212.609C54.5104 212.089 55.8854 211.828 57.4688 211.828C58.6562 211.828 59.7865 211.969 60.8594 212.25C61.9427 212.521 63.0729 212.917 64.25 213.438L62.6875 217.203C61.6354 216.776 60.6927 216.448 59.8594 216.219C59.026 215.979 58.1771 215.859 57.3125 215.859C56.7083 215.859 56.1927 215.958 55.7656 216.156C55.3385 216.344 55.0156 216.615 54.7969 216.969C54.5781 217.312 54.4688 217.714 54.4688 218.172C54.4688 218.714 54.625 219.172 54.9375 219.547C55.2604 219.911 55.7396 220.266 56.375 220.609C57.0208 220.953 57.8229 221.354 58.7812 221.812C59.9479 222.365 60.9427 222.943 61.7656 223.547C62.599 224.141 63.2396 224.844 63.6875 225.656C64.1354 226.458 64.3594 227.458 64.3594 228.656ZM87.4531 223.359C87.4531 225.932 86.9583 228.083 85.9688 229.812C84.9896 231.531 83.5677 232.828 81.7031 233.703C79.8385 234.568 77.5938 235 74.9688 235H68.5V212.156H75.6719C78.0677 212.156 80.1458 212.583 81.9062 213.438C83.6667 214.281 85.0312 215.536 86 217.203C86.9688 218.859 87.4531 220.911 87.4531 223.359ZM82.4219 223.484C82.4219 221.797 82.1719 220.411 81.6719 219.328C81.1823 218.234 80.4531 217.427 79.4844 216.906C78.526 216.385 77.3385 216.125 75.9219 216.125H73.3438V231H75.4219C77.7865 231 79.5417 230.37 80.6875 229.109C81.8438 227.849 82.4219 225.974 82.4219 223.484ZM210.625 214.062C209.271 212.792 207.12 212.156 204.172 212.156H196.875V235H201.719V226.875H203.797C205.464 226.875 206.865 226.672 208 226.266C209.135 225.849 210.042 225.286 210.719 224.578C211.406 223.87 211.901 223.062 212.203 222.156C212.505 221.24 212.656 220.281 212.656 219.281C212.656 217.062 211.979 215.323 210.625 214.062ZM201.719 216.125H203.922C205.234 216.125 206.203 216.401 206.828 216.953C207.453 217.495 207.766 218.328 207.766 219.453C207.766 220.255 207.583 220.911 207.219 221.422C206.854 221.932 206.339 222.307 205.672 222.547C205.005 222.786 204.219 222.906 203.312 222.906H201.719V216.125ZM228.844 212.156L224.078 221.562L219.344 212.156H214.094L221.672 226.266V235H226.484V226.109L234.062 212.156H228.844Z" fill="black"/>
</svg>
